<svg width="66" height="57" viewBox="0 0 66 57" fill="none" xmlns="http://www.w3.org/2000/svg">
<path d="M56.3333 47.3332V53.1665C56.3333 53.9929 56.0533 54.6861 55.4933 55.2461C54.9333 55.8061 54.2411 56.0851 53.4167 56.0832C52.5903 56.0832 51.8971 55.8032 51.3371 55.2432C50.7771 54.6832 50.4981 53.991 50.5 53.1665V47.3332H44.6667C43.8403 47.3332 43.1471 47.0532 42.5871 46.4932C42.0271 45.9332 41.7481 45.241 41.75 44.4165C41.75 43.5901 42.03 42.8969 42.59 42.3369C43.15 41.7769 43.8422 41.4979 44.6667 41.4998H50.5V35.6665C50.5 34.8401 50.78 34.1469 51.34 33.5869C51.9 33.0269 52.5922 32.7479 53.4167 32.7498C54.2431 32.7498 54.9362 33.0298 55.4962 33.5898C56.0562 34.1498 56.3353 34.8421 56.3333 35.6665V41.4998H62.1667C62.9931 41.4998 63.6862 41.7798 64.2462 42.3398C64.8062 42.8998 65.0853 43.5921 65.0833 44.4165C65.0833 45.2429 64.8033 45.9361 64.2433 46.4961C63.6833 47.0561 62.9911 47.3351 62.1667 47.3332H56.3333ZM6.75 47.3332C5.92361 47.3332 5.23042 47.0532 4.67042 46.4932C4.11042 45.9332 3.83139 45.241 3.83333 44.4165V29.8332H3.32292C2.39931 29.8332 1.64583 29.4803 1.0625 28.7744C0.479166 28.0686 0.284722 27.2548 0.479167 26.3332L3.39583 11.7498C3.54167 11.0693 3.88194 10.5103 4.41667 10.0728C4.95139 9.63526 5.55903 9.41651 6.23958 9.41651H45.1771C45.8576 9.41651 46.4653 9.63526 47 10.0728C47.5347 10.5103 47.875 11.0693 48.0208 11.7498L50.9375 26.3332C51.1319 27.2568 50.9375 28.0715 50.3542 28.7773C49.7708 29.4832 49.0174 29.8351 48.0937 29.8332H47.5833V35.6665C47.5833 36.4929 47.3033 37.1861 46.7433 37.7461C46.1833 38.3061 45.4911 38.5851 44.6667 38.5832C43.8403 38.5832 43.1471 38.3032 42.5871 37.7432C42.0271 37.1832 41.7481 36.491 41.75 35.6665V29.8332H30.0833V44.4165C30.0833 45.2429 29.8033 45.9361 29.2433 46.4961C28.6833 47.0561 27.9911 47.3351 27.1667 47.3332H6.75ZM9.66667 41.4998H24.25V29.8332H9.66667V41.4998ZM6.75 6.49985C5.92361 6.49985 5.23042 6.21985 4.67042 5.65985C4.11042 5.09985 3.83139 4.40762 3.83333 3.58318C3.83333 2.75679 4.11333 2.0636 4.67333 1.5036C5.23333 0.943598 5.92556 0.66457 6.75 0.666514H44.6667C45.4931 0.666514 46.1862 0.946514 46.7463 1.50651C47.3063 2.06651 47.5853 2.75874 47.5833 3.58318C47.5833 4.40957 47.3033 5.10276 46.7433 5.66276C46.1833 6.22276 45.4911 6.50179 44.6667 6.49985H6.75ZM6.89583 23.9998H44.5208L42.7708 15.2498H8.64583L6.89583 23.9998Z" fill="#F11B1C"/>
</svg>
