<svg width="66" height="66" viewBox="0 0 66 66" fill="none" xmlns="http://www.w3.org/2000/svg">
<path d="M63.5703 52.6487L52.4846 41.563L43.9577 38.0401C46.7969 34.0026 48.318 29.1858 48.3125 24.25C48.3125 10.9819 37.5181 0.1875 24.25 0.1875C10.9819 0.1875 0.1875 10.9819 0.1875 24.25C0.1875 37.5181 10.9819 48.3125 24.25 48.3125C29.2288 48.3182 34.0854 46.7708 38.1432 43.886L41.6569 52.3899L52.7422 63.4761C53.4531 64.1871 54.2971 64.7511 55.2261 65.1359C56.155 65.5207 57.1506 65.7188 58.156 65.7188C59.1615 65.7188 60.1571 65.5208 61.086 65.1361C62.0149 64.7513 62.859 64.1874 63.57 63.4765C64.281 62.7655 64.8449 61.9215 65.2297 60.9926C65.6145 60.0637 65.8126 59.0681 65.8127 58.0626C65.8127 57.0572 65.6147 56.0616 65.2299 55.1326C64.8452 54.2037 64.2812 53.3597 63.5703 52.6487ZM4.5625 24.25C4.5625 13.3945 13.3945 4.5625 24.25 4.5625C35.1055 4.5625 43.9375 13.3945 43.9375 24.25C43.9375 35.1055 35.1055 43.9375 24.25 43.9375C13.3945 43.9375 4.5625 35.1055 4.5625 24.25ZM60.4765 60.3826C59.8606 60.997 59.0262 61.3421 58.1562 61.3421C57.2863 61.3421 56.4519 60.997 55.836 60.3826L45.3672 49.9137L42.1004 42.0066L50.0078 45.2734L60.4768 55.7422C61.0912 56.3581 61.4362 57.1925 61.4361 58.0624C61.4361 58.9324 61.091 59.7668 60.4765 60.3826Z" fill="#F11B1C"/>
</svg>
